<svg xmlns="http://www.w3.org/2000/svg" width="390" height="844" viewBox="0 0 390 844" font-family="Inter, 'Helvetica Neue', Arial, system-ui, sans-serif"><title>Tickr — Découvrir (sombre)</title><defs><clipPath id="ph"><rect width="390" height="844" rx="24"/></clipPath><clipPath id="cc"><rect width="173" height="212" rx="16"/></clipPath><clipPath id="pc"><rect width="173" height="116"/></clipPath><clipPath id="po"><rect width="390" height="488"/></clipPath><linearGradient id="gA" x1="0" y1="0" x2="1" y2="1"><stop offset="0" stop-color="#2E3DE8"/><stop offset=".55" stop-color="#2430C9"/><stop offset="1" stop-color="#0B0F1A"/></linearGradient><linearGradient id="gB" x1="0" y1="1" x2="1" y2="0"><stop offset="0" stop-color="#FF5C4D"/><stop offset="1" stop-color="#FFD23F"/></linearGradient><linearGradient id="gC" x1="0" y1="0" x2="1" y2="1"><stop offset="0" stop-color="#0B0F1A"/><stop offset=".5" stop-color="#2E3DE8"/><stop offset="1" stop-color="#FF5C4D"/></linearGradient><linearGradient id="gD" x1="0" y1="0" x2="1" y2="1"><stop offset="0" stop-color="#FFD23F"/><stop offset=".45" stop-color="#FF5C4D"/><stop offset="1" stop-color="#2E3DE8"/></linearGradient><linearGradient id="gE" x1="0" y1="0" x2="1" y2="1"><stop offset="0" stop-color="#8F9BFF"/><stop offset=".5" stop-color="#2E3DE8"/><stop offset="1" stop-color="#0B0F1A"/></linearGradient><linearGradient id="gF" x1="1" y1="0" x2="0" y2="1"><stop offset="0" stop-color="#0B0F1A"/><stop offset=".6" stop-color="#2E3DE8"/><stop offset="1" stop-color="#8F9BFF"/></linearGradient><linearGradient id="scrimB" x1="0" y1="0" x2="0" y2="1"><stop offset="0" stop-color="#0B0F1A" stop-opacity="0"/><stop offset="1" stop-color="#0B0F1A" stop-opacity=".85"/></linearGradient><linearGradient id="scrimT" x1="0" y1="0" x2="0" y2="1"><stop offset="0" stop-color="#0B0F1A" stop-opacity=".55"/><stop offset="1" stop-color="#0B0F1A" stop-opacity="0"/></linearGradient></defs><rect width="390" height="844" rx="24" fill="#0B0F1A"/><g clip-path="url(#ph)"><text x="24" y="31" font-size="14" fill="#E8E6E1" font-weight="600">9:41</text><rect x="318" y="26" width="3" height="4" rx="1" fill="#E8E6E1"/><rect x="323" y="24" width="3" height="6" rx="1" fill="#E8E6E1"/><rect x="328" y="22" width="3" height="8" rx="1" fill="#E8E6E1"/><rect x="333" y="20" width="3" height="10" rx="1" fill="#E8E6E1"/><rect x="342" y="20" width="22" height="11" rx="3" fill="none" stroke="#E8E6E1"/><rect x="344" y="22" width="15" height="7" rx="1.5" fill="#E8E6E1"/><rect x="365" y="23.5" width="1.5" height="4" rx="0.5" fill="#E8E6E1"/><text x="16" y="84" font-size="26" fill="#E8E6E1" font-weight="800" font-family="Archivo, 'Helvetica Neue', Arial, system-ui, sans-serif" letter-spacing="-0.6">Tickr</text><g transform="translate(342,64)" fill="none" stroke="#E8E6E1" stroke-width="2" stroke-linecap="round" stroke-linejoin="round"><circle cx="10.5" cy="10.5" r="6.5"/><path d="M15.5 15.5L21 21"/></g><rect x="253.5" y="60.5" width="76" height="31" rx="15.5" fill="#141926" stroke="#2A3145"/><text x="265" y="81" font-size="13" fill="#E8E6E1" font-weight="500">Tunis</text><g transform="translate(304,68) scale(0.6667)" fill="none" stroke="#9CA3AF" stroke-width="2" stroke-linecap="round" stroke-linejoin="round"><path d="M6 9l6 6 6-6"/></g><rect x="16.5" y="112.5" width="64" height="31" rx="15.5" fill="#141926" stroke="#2A3145"/><text x="48.5" y="133" font-size="13" fill="#B8BDC7" font-weight="500" text-anchor="middle">Ce soir</text><rect x="89" y="112" width="106" height="32" rx="16" fill="#1C2233"/><text x="142" y="133" font-size="13" fill="#8F9BFF" font-weight="500" text-anchor="middle">Ce week-end</text><rect x="203.5" y="112.5" width="112" height="31" rx="15.5" fill="#141926" stroke="#2A3145"/><text x="259.5" y="133" font-size="13" fill="#B8BDC7" font-weight="500" text-anchor="middle">Cette semaine</text><rect x="324.5" y="112.5" width="68" height="31" rx="15.5" fill="#141926" stroke="#2A3145"/><text x="358.5" y="133" font-size="13" fill="#B8BDC7" font-weight="500" text-anchor="middle">Concert</text><text x="16" y="186" font-size="20" fill="#E8E6E1" font-weight="700" font-family="Archivo, 'Helvetica Neue', Arial, system-ui, sans-serif" letter-spacing="-0.3">Ce week-end à Tunis</text><text x="374" y="185" font-size="13" fill="#8F9BFF" font-weight="600" text-anchor="end">Voir tout</text><g transform="translate(16,204)" clip-path="url(#cc)"><rect x="0" y="0" width="173" height="212" fill="#141926"/><g clip-path="url(#pc)"><rect x="0" y="0" width="173" height="116" fill="url(#gA)"/><circle cx="138.4" cy="34.8" r="58" fill="#FFD23F" fill-opacity="0.28"/><circle cx="31.14" cy="71.92" r="44.08" fill="#FFFFFF" fill-opacity="0.08"/></g></g><rect x="16.5" y="204.5" width="172" height="211" rx="15.5" fill="none" stroke="#2A3145"/><rect x="24" y="212" width="44" height="44" rx="10" fill="#FFFFFF"/><text x="46" y="229" font-size="11" fill="#6B7280" font-weight="700" text-anchor="middle" letter-spacing="0.6">VEN</text><text x="46" y="249" font-size="17" fill="#0B0F1A" font-weight="700" text-anchor="middle">12</text><text x="28" y="346" font-size="14" fill="#E8E6E1" font-weight="600">Nuit Jazz à Sidi</text><text x="28" y="364" font-size="14" fill="#E8E6E1" font-weight="600">Bou Saïd</text><text x="28" y="381" font-size="11" fill="#9CA3AF">Villa Sebastian · Hammamet</text><text x="28" y="401" font-size="13" fill="#E8E6E1" font-weight="700">À partir de 50 DT</text><g transform="translate(201,204)" clip-path="url(#cc)"><rect x="0" y="0" width="173" height="212" fill="#141926"/><g clip-path="url(#pc)"><rect x="0" y="0" width="173" height="116" fill="url(#gB)"/><circle cx="43.25" cy="48.72" r="60.32" fill="none" stroke="#FFFFFF" stroke-width="6.96" stroke-opacity="0.35"/><circle cx="148.78" cy="83.52" r="25.52" fill="#0B0F1A" fill-opacity="0.25"/></g></g><rect x="201.5" y="204.5" width="172" height="211" rx="15.5" fill="none" stroke="#2A3145"/><rect x="209" y="212" width="44" height="44" rx="10" fill="#FFFFFF"/><text x="231" y="229" font-size="11" fill="#6B7280" font-weight="700" text-anchor="middle" letter-spacing="0.6">SAM</text><text x="231" y="249" font-size="17" fill="#0B0F1A" font-weight="700" text-anchor="middle">13</text><rect x="209" y="290" width="119" height="22" rx="11" fill="#FFD23F"/><text x="218" y="304.96" font-size="11" fill="#0B0F1A" font-weight="600">Plus que 4 places</text><text x="213" y="346" font-size="14" fill="#E8E6E1" font-weight="600">Festival Électro</text><text x="213" y="364" font-size="14" fill="#E8E6E1" font-weight="600">Carthage</text><text x="213" y="381" font-size="11" fill="#9CA3AF">Amphithéâtre · Carthage</text><text x="213" y="401" font-size="13" fill="#E8E6E1" font-weight="700">À partir de 80 DT</text><g transform="translate(16,428)" clip-path="url(#cc)"><rect x="0" y="0" width="173" height="212" fill="#141926"/><g clip-path="url(#pc)"><rect x="0" y="0" width="173" height="116" fill="url(#gC)"/><circle cx="152.24" cy="58" r="58" fill="#FFD23F" fill-opacity="0.32"/><circle cx="152.24" cy="58" r="34.8" fill="#FF5C4D" fill-opacity="0.5"/></g></g><rect x="16.5" y="428.5" width="172" height="211" rx="15.5" fill="none" stroke="#2A3145"/><rect x="24" y="436" width="44" height="44" rx="10" fill="#FFFFFF"/><text x="46" y="453" font-size="11" fill="#6B7280" font-weight="700" text-anchor="middle" letter-spacing="0.6">SAM</text><text x="46" y="473" font-size="17" fill="#0B0F1A" font-weight="700" text-anchor="middle">13</text><text x="28" y="570" font-size="14" fill="#E8E6E1" font-weight="600">Stand-up : Soirée</text><text x="28" y="588" font-size="14" fill="#E8E6E1" font-weight="600">Rire</text><text x="28" y="605" font-size="11" fill="#9CA3AF">Le Colisée · Tunis</text><text x="28" y="625" font-size="13" fill="#E8E6E1" font-weight="700">À partir de 25 DT</text><g transform="translate(201,428)" clip-path="url(#cc)"><rect x="0" y="0" width="173" height="212" fill="#141926"/><g clip-path="url(#pc)"><rect x="0" y="0" width="173" height="116" fill="url(#gD)"/><circle cx="34.6" cy="34.8" r="41.76" fill="#FFFFFF" fill-opacity="0.16"/><circle cx="107.26" cy="76.56" r="37.12" fill="#0B0F1A" fill-opacity="0.22"/><circle cx="155.7" cy="27.84" r="18.56" fill="#FFFFFF" fill-opacity="0.3"/></g></g><rect x="201.5" y="428.5" width="172" height="211" rx="15.5" fill="none" stroke="#2A3145"/><rect x="209" y="436" width="44" height="44" rx="10" fill="#FFFFFF"/><text x="231" y="453" font-size="11" fill="#6B7280" font-weight="700" text-anchor="middle" letter-spacing="0.6">DIM</text><text x="231" y="473" font-size="17" fill="#0B0F1A" font-weight="700" text-anchor="middle">14</text><rect x="209" y="514" width="65" height="22" rx="11" fill="#1C2233"/><text x="218" y="528.96" font-size="11" fill="#9CA3AF" font-weight="600">Complet</text><text x="213" y="570" font-size="14" fill="#E8E6E1" font-weight="600">Sunset Sessions</text><text x="213" y="588" font-size="14" fill="#E8E6E1" font-weight="600">La Marsa</text><text x="213" y="605" font-size="11" fill="#9CA3AF">Gammarth · La Marsa</text><text x="213" y="625" font-size="13" fill="#E8E6E1" font-weight="700">À partir de 35 DT</text><text x="16" y="682" font-size="20" fill="#E8E6E1" font-weight="700" font-family="Archivo, 'Helvetica Neue', Arial, system-ui, sans-serif" letter-spacing="-0.3">Concerts à venir</text><text x="374" y="681" font-size="13" fill="#8F9BFF" font-weight="600" text-anchor="end">Voir tout</text><g transform="translate(16,700)" clip-path="url(#cc)"><rect x="0" y="0" width="173" height="212" fill="#141926"/><g clip-path="url(#pc)"><rect x="0" y="0" width="173" height="116" fill="url(#gE)"/><circle cx="34.6" cy="34.8" r="41.76" fill="#FFFFFF" fill-opacity="0.16"/><circle cx="107.26" cy="76.56" r="37.12" fill="#0B0F1A" fill-opacity="0.22"/><circle cx="155.7" cy="27.84" r="18.56" fill="#FFFFFF" fill-opacity="0.3"/></g></g><rect x="16.5" y="700.5" width="172" height="211" rx="15.5" fill="none" stroke="#2A3145"/><rect x="24" y="708" width="44" height="44" rx="10" fill="#FFFFFF"/><text x="46" y="725" font-size="11" fill="#6B7280" font-weight="700" text-anchor="middle" letter-spacing="0.6">JEU</text><text x="46" y="745" font-size="17" fill="#0B0F1A" font-weight="700" text-anchor="middle">18</text><g transform="translate(201,700)" clip-path="url(#cc)"><rect x="0" y="0" width="173" height="212" fill="#141926"/><g clip-path="url(#pc)"><rect x="0" y="0" width="173" height="116" fill="url(#gF)"/><circle cx="152.24" cy="58" r="58" fill="#FFD23F" fill-opacity="0.32"/><circle cx="152.24" cy="58" r="34.8" fill="#FF5C4D" fill-opacity="0.5"/></g></g><rect x="201.5" y="700.5" width="172" height="211" rx="15.5" fill="none" stroke="#2A3145"/><rect x="209" y="708" width="44" height="44" rx="10" fill="#FFFFFF"/><text x="231" y="725" font-size="11" fill="#6B7280" font-weight="700" text-anchor="middle" letter-spacing="0.6">VEN</text><text x="231" y="745" font-size="17" fill="#0B0F1A" font-weight="700" text-anchor="middle">19</text><rect x="0" y="760" width="390" height="84" fill="#141926"/><line x1="0" y1="760.5" x2="390" y2="760.5" stroke="#2A3145"/><g transform="translate(36.75,772)" fill="none" stroke="#8F9BFF" stroke-width="2" stroke-linecap="round" stroke-linejoin="round"><circle cx="12" cy="12" r="9"/><path d="M15.5 8.5l-1.8 5.2-5.2 1.8 1.8-5.2z"/></g><text x="48.75" y="812" font-size="11" fill="#8F9BFF" font-weight="600" text-anchor="middle">Découvrir</text><g transform="translate(134.25,772)" fill="none" stroke="#9CA3AF" stroke-width="1.75" stroke-linecap="round" stroke-linejoin="round"><circle cx="10.5" cy="10.5" r="6.5"/><path d="M15.5 15.5L21 21"/></g><text x="146.25" y="812" font-size="11" fill="#9CA3AF" font-weight="500" text-anchor="middle">Recherche</text><g transform="translate(231.75,772)" fill="none" stroke="#9CA3AF" stroke-width="1.75" stroke-linecap="round" stroke-linejoin="round"><path d="M4 6.5h16v3.5a2 2 0 0 0 0 4v3.5H4v-3.5a2 2 0 0 0 0-4z"/><path d="M14.5 8.5v7" stroke-dasharray="2 2"/></g><text x="243.75" y="812" font-size="11" fill="#9CA3AF" font-weight="500" text-anchor="middle">Mes billets</text><g transform="translate(329.25,772)" fill="none" stroke="#9CA3AF" stroke-width="1.75" stroke-linecap="round" stroke-linejoin="round"><circle cx="12" cy="8" r="4"/><path d="M4 20a8 8 0 0 1 16 0"/></g><text x="341.25" y="812" font-size="11" fill="#9CA3AF" font-weight="500" text-anchor="middle">Compte</text><rect x="128" y="830" width="134" height="5" rx="2.5" fill="#E8E6E1"/></g><rect x=".5" y=".5" width="389" height="843" rx="23.5" fill="none" stroke="#2A3145"/></svg>
